<?xml version="1.0" standalone="yes"?>
<svg xmlns="http://www.w3.org/2000/svg" width="900" height="267">
<path style="fill:#fefdfc; stroke:none;" d="M0 0L0 267L900 267L900 0L0 0z"/>
<path style="fill:#dba31a; stroke:none;" d="M38 9L38 12C52.3667 13.9346 66.6701 19.9623 79 27.4005C158.368 75.2803 159.685 189.1 83 239.996C69.8189 248.745 53.7835 255.875 38 258C42.0426 264.236 58.4453 260.868 65 260.166C93.8912 257.073 123.391 243.019 142.714 221C191.793 165.071 185.591 75.554 123 31.7215C96.9275 13.463 69.0204 9 38 9M52 85L52 86C82.7842 99.7102 104.83 132.283 81.2392 164C77.1811 169.456 71.9064 174.276 66 177.663C61.8847 180.022 55.8554 181.194 53 185C86.4366 185 111.753 157.079 104.482 123C100.065 102.294 74.7162 78.3005 52 85z"/>
<path style="fill:#a1a1a1; stroke:none;" d="M214.279 101.742C209.864 103.878 211.711 110.204 211.921 114C212.502 124.469 212.559 135.534 211.914 145.999C211.672 149.907 209.723 156.01 212.859 159.258C216.227 162.747 225.575 161 230 161C245.088 161 268.328 165.346 281.985 158.164C294.607 151.527 295.53 115.934 285.66 106.529C274.3 95.7051 246.479 101 232 101C226.941 101 218.922 99.4965 214.279 101.742z"/>
<path style="fill:#5f5f5f; stroke:none;" d="M215.318 103.198C211.814 105.091 213 111.739 213 115L213 146C213 149.193 211.799 155.612 214.028 158.222C216.842 161.519 226.177 159.019 230 159.001C244.152 158.933 269.565 163.91 281.985 156.633C293.33 149.985 294.23 116.084 284.786 107.394C274.152 97.6073 245.573 103 232 103C227.726 103 219.051 101.181 215.318 103.198z"/>
<path style="fill:#dba31a; stroke:none;" d="M309 102.443C297.018 104.477 290.429 122.086 298.434 131.891C305.575 140.638 324.941 137.996 335 138C338.669 138.001 346.909 137.135 348.387 141.833C350.157 147.456 338.789 146.999 336 147C330.984 147.002 324.896 147.926 320.015 146.682C314.882 145.374 303.006 135.261 297.028 141.832C291.46 147.952 300.223 158.06 306 159.467C316.969 162.137 330.73 160 342 160C347.843 160 354.484 160.661 359.999 158.297C370.104 153.967 371.638 134.146 362.895 127.703C354.044 121.18 338.31 124.017 328 124C324.978 123.995 314.762 124.436 315.631 119.054C316.419 114.177 324.597 115.001 328 115C332.613 114.998 338.593 114.028 342.961 115.742C349.227 118.2 356.147 124.86 363.682 119.821C370.351 115.361 361.908 105.032 356.999 103.344C344.596 99.0795 321.876 100.257 309 102.443M374.148 102.742C370.42 104.429 369.315 113.368 372.603 115.972C378.199 120.404 388.985 113.445 394.397 118.742C396.827 121.121 396 125.934 396 129C396.001 139.487 391.334 168.087 410.852 159.258C414.758 157.491 413.998 152.537 414 149C414.004 141.109 411.347 127.451 414.603 120.228C418.391 111.827 435.787 122.444 438.566 113.852C439.675 110.423 439.456 104.614 435.772 102.894C424.584 97.6675 402.325 102 390 102C385.321 102 378.498 100.774 374.148 102.742M461 123L462 123C466.251 133.157 473.509 150.005 481.529 157.566C485.006 160.844 492.801 161.032 496.61 158.142C506.854 150.366 508.401 132.862 518 124L518 142C518 146.241 516.337 155.13 519.603 158.397C523.487 162.281 534.896 160.861 535.852 154.981C537.653 143.9 536 131.231 536 120C536 115.703 537.195 109.216 535.397 105.228C533.587 101.217 527.571 102.098 523.961 102.025C509.717 101.736 507.17 104.742 500.54 117C496.972 123.597 492.895 130.082 490 137C482.676 128.088 479.34 110.291 469.79 103.938C465.357 100.989 446.552 99.5292 443.204 104.419C441.108 107.48 442.004 113.482 442 117C441.987 127.678 438.221 147.051 442.603 156.772C444.664 161.341 458.093 161.954 459.682 156.772C462.884 146.326 458.428 133.804 461 123z"/>
<path style="fill:#161616; stroke:none;" d="M214 104C214 120.807 210.242 142.902 215 159C229.272 155.602 246.354 158 261 158C267.766 158 275.825 159.07 281.907 155.442C292.879 148.897 292.81 113.207 281.896 106.649C275.464 102.784 267.175 104 260 104L214 104z"/>
<path style="fill:#5f5f5f; stroke:none;" d="M232.318 116.742C228.085 118.9 228.406 141.2 231.603 144.397C233.859 146.652 238.114 145.999 241 146C248.718 146.003 260.854 148.259 267.812 144.427C275.11 140.408 275.396 122.759 268.775 118.009C263.172 113.99 238.49 113.596 232.318 116.742z"/>
<path style="fill:#a1a1a1; stroke:none;" d="M233.318 117.742C229.149 119.867 229.489 140.282 232.603 143.397C237.176 147.97 261.385 146.105 266.895 143.347C274.263 139.66 274.093 123.37 267.786 118.742C262.666 114.985 238.996 114.848 233.318 117.742z"/>
<path style="fill:#fefdfc; stroke:none;" d="M233.603 119.028C230.459 121.518 230.57 139.65 233.603 142.227C235.634 143.951 239.564 143.028 242 143.004C248.544 142.939 262.374 145.636 267.682 141.258C271.698 137.946 271.369 123.957 267.682 120.514C262.279 115.468 248.841 117.997 242 118C239.531 118.001 235.689 117.376 233.603 119.028z"/>
<path style="fill:#a1a1a1; stroke:none;" d="M296.001 189.573C287.228 192.102 284.096 207.951 292.059 213.142C297.263 216.535 304.372 214.277 309.941 216.6C312.496 217.665 314.084 220.143 313.508 222.942C310.665 236.753 291.963 218.24 289.588 220.047C285.529 223.135 288.756 230.836 292.059 232.991C297.776 236.72 308.778 236.773 314.985 234.262C323.093 230.981 325.371 215.295 317.786 210.279C312.594 206.844 306.585 209.134 301.019 207.682C298.13 206.929 295.456 204.284 296.086 201.058C298.679 187.782 316.661 205.62 319.532 203.214C323.338 200.023 319.822 193.826 316.891 191.434C312.326 187.706 301.467 187.996 296.001 189.573M518.303 190.086C514.328 192.388 517.206 199.882 521.578 196.953C525.158 194.555 522.51 187.651 518.303 190.086M707 205L708 205C710.661 211.486 715.414 231.599 722.21 234.214C726.203 235.75 728.678 232.08 730.134 228.985C733.863 221.059 737.689 212.448 740 204L741 204C741 211.977 740.672 220.03 741.019 227.999C741.128 230.483 741.595 234.364 744.924 234.364C749.354 234.364 748.12 227.675 748.035 225C747.719 214.93 750.977 201.721 747.718 192.148C746.054 187.258 739.44 188.909 736.969 192.148C731.531 199.277 726.512 213.22 725 222C719.254 214.544 716.704 193.145 707.895 189.604C704.534 188.253 700.333 189.361 699.318 193.059C696.876 201.95 696.872 222.051 699.318 230.941C701.691 239.565 706.968 230.535 706.999 226L707 218L707 205z"/>
<path style="fill:#5f5f5f; stroke:none;" d="M289 200L290 200C292.94 191.429 307.445 188.528 314.89 193.742C318.232 196.082 319.303 199.804 315 201C319.275 205.715 320.61 196.765 317.486 193.573C309.95 185.871 290.939 189.327 289 200M706 201L718 226L719 226C716.523 216.944 712.423 203.924 706 197C701.695 207.202 704 221.068 704 232C697.841 225.968 700.944 209.234 701.001 201C701.022 197.892 701.081 191.587 705.975 192.752C709.897 193.685 711.284 198.775 712.603 202C715.777 209.757 718.357 220.616 725 226L738 194L737 194L725 224C719.218 216.856 715.451 192.59 705.986 190.833C701.611 190.02 700.183 193.278 700.019 197.004C699.606 206.424 697.557 220.871 700.433 229.851C703.212 238.527 705.999 224.456 706 222L706 214L706 201M738 192L738 193L746 192L745 233L744 233L742 198L740 198L737 207L738 207L742 200L742 213L742 221C742 222.329 741.905 236.248 745.992 232.11C748.25 229.823 747 222.943 747 220C747 211.622 751.798 186.298 738 192M522 196L522 191C517.008 191.832 517.008 195.168 522 196z"/>
<path style="fill:#161616; stroke:none;" d="M292 221L290 221C286.498 235.056 313.407 237.522 318.682 227.891C319.655 226.114 319.897 223.992 319.945 222C320.402 203.058 295.085 217.352 293.337 202.996C291.692 189.482 312.081 193.367 316 202L318 202C321.264 188.455 294.034 188.283 290.149 198.015C281.579 219.484 315.21 206.262 316.137 221.001C317.064 235.72 295.833 230.391 292 221M518 192L518 195L521 195L521 192L518 192M704 232L706 197C710.985 204.629 714.022 213.564 717.4 222C718.528 224.819 719.768 230.326 723.171 231.248C727.092 232.311 728.672 226.595 729.734 224C733.271 215.354 737.396 206.997 740 198L742 198L744 233L745 233L746 192C733.588 192.147 728.926 215.877 725 226C718.929 219.016 716.076 209.485 712.603 201C711.174 197.508 709.691 192.296 705.043 192.296C700.419 192.296 701.007 197.798 701 201C700.985 208.113 697.647 227.881 704 232z"/>
<path style="fill:#5f5f5f; stroke:none;" d="M298 194L298 195L313 196L298 194M296.667 195.333L297.333 195.667L296.667 195.333z"/>
<path style="fill:#a1a1a1; stroke:none;" d="M456 227L457 227C457.122 230.749 461.291 238.916 464.397 231.851C467.028 225.866 462.09 216.589 466.603 211.323C471.103 206.071 480.007 221.229 480.758 210.956C481.474 201.154 464.296 198.131 458.603 203.618C454.838 207.247 457 219.117 457 224L456 224C451.507 217.172 447.95 229.341 445.008 225.534C442.722 222.574 443.086 212.194 446.318 210.028C448.559 208.525 452.202 209.714 453.953 207.412C458.196 201.834 446.436 202.002 444 202C443.219 191.767 435.206 197.156 433.603 204.17C432.756 207.876 435.725 211.412 436.327 215C437.108 219.658 435.161 224.371 436.653 228.985C439.832 238.819 454.152 236.078 456 227M524 208C531.596 214.327 524.664 224.428 530.009 231.772C535.302 239.045 549.112 234.447 547.836 225.059C546.505 215.264 539.234 230.416 536.6 224.793C535.055 221.495 535.006 212.248 538.318 210.028C540.486 208.574 544.336 209.743 545.914 207.401C549.577 201.963 538.43 202.002 536 202C535.089 190.051 529.333 199.747 524.857 201.942C521.525 203.575 517.639 201.258 516.318 206.059C514.58 212.373 515.098 223.52 516.148 229.981C516.56 232.513 518.609 235.642 521.571 233.914C526.783 230.873 524 213.316 524 208z"/>
<path style="fill:#5f5f5f; stroke:none;" d="M295 196L296 197L295 196M313 196L314 197L313 196M294 197L294 207L295 207L294 197M314 197L314 200L315 200L314 197M438 197L434 207C441.275 213.944 434.546 223.193 439.179 230.772C443.479 237.805 452.949 232.887 455 227L454 227C451.307 231.844 442.888 236.022 439.742 228.867C436.452 221.384 439.272 212.053 436 204L439 198L441 198C441.78 204.924 445.91 204.995 452 205L452 206C449.221 206 445.513 205.365 443.25 207.333C439.198 210.858 439.338 227.354 444.25 230.278C449.582 233.452 451.563 223.098 454 225L455 225L454 222C451.487 223.365 449.597 227.759 446.912 228.218C440.698 229.282 443 211.458 443 208L454 207L454 205L445.302 202.822L438 197M543 223L543 224C549.671 224.872 540.414 236.983 533.25 231.361C526.141 225.781 536.434 210.946 527 207L527 205L531 198L533 198C534.797 203.664 537.176 204.931 543 205L543 206C533.54 206.112 528.814 222.633 535.742 229.381C539.408 232.952 542.475 228.216 543 225L542 225C536.193 235.679 534.067 216.614 535.318 212.059C536.782 206.728 543.264 209.23 545 204C541.551 203.604 531.825 197.353 530.704 198.083C524.468 202.141 527.308 230.362 534.108 233.258C543.688 237.338 551.061 222.858 543 223z"/>
<path style="fill:#161616; stroke:none;" d="M439 198L436 204C437.688 210.526 436.596 225.472 440.179 230.486C445.451 237.863 454.942 229.976 454 223C451.909 224.895 449.902 229.476 446.935 229.94C442.087 230.697 441.111 223.238 441.015 220C440.763 211.406 442.631 206.111 452 206L452 205C446.124 204.979 442.297 204.351 441 198L439 198M531 198L527 205L527 207C534.416 213.544 526.578 225.209 532.742 231.142C538.87 237.04 546.886 229.927 545 223L544 223C536.949 241.835 524.721 206.594 543 206L543 205C537.437 204.819 535.277 203.002 533 198L531 198z"/>
<path style="fill:#a1a1a1; stroke:none;" d="M336 201.468C323.632 203.571 319.532 222.461 327.514 231.772C331.467 236.383 339.616 236.025 344.999 234.811C361.222 231.151 355.664 198.125 336 201.468M399 201.469C384.059 204.295 388.265 221.55 402 222.001C403.793 222.06 408.963 221.883 408.369 225C406.656 233.987 394.221 220.212 390.745 223.623C387.744 226.568 390.323 231.304 393.109 233.258C397.673 236.46 405.86 236.078 410.985 234.57C417.755 232.579 420.271 222.688 415.347 217.573C412.276 214.382 407.96 215.287 404.004 214.941C402.275 214.79 398.274 214.146 398.77 211.514C400.121 204.345 412.346 214.303 415.386 211.953C424.168 205.164 402.815 200.748 399 201.469M510 231L509 231L508 234C501.936 232.067 495.927 235.41 490.005 233.106C481.651 229.857 482.391 217.802 491.001 215.434C494.387 214.502 500.633 216.938 503.353 214.883C508.384 211.08 497.964 206.798 495.004 207.244C490.671 207.896 488.574 211.414 484 211C490.35 196.725 508.958 202.274 509 217C515.951 200.434 486.643 194.998 483.571 208.019C482.41 212.938 481.378 228.738 485.318 232.566C489.826 236.947 507.901 237.304 510 231M553 214C541.509 229.551 560.305 242.919 574.682 233.937C577.963 231.887 577 226.259 577 223C577.001 212.837 577.787 202.588 565 201.188C558.535 200.481 543.063 207.365 553 214M595 201.549C581.896 203.417 582 205.995 582 219C582 222.594 580.146 234.364 586 234.364C595.748 234.364 582.985 203.489 598.941 209.608C606.628 212.556 599.114 235.465 606.95 234.534C612.406 233.886 611.001 224.705 611 221C610.996 210.388 608.168 199.673 595 201.549M626 201.482C605.715 204.82 612.599 244.369 636.982 233.992C640.455 232.513 645.9 225.427 641.4 222.047C636.31 218.224 630.972 234.249 623.858 225.566C619.691 220.48 622.037 207.331 630.409 209.094C633.478 209.74 637.218 216.113 640.412 213.914C649.862 207.407 630.777 200.696 626 201.482M658 201.468C645.383 203.614 640.961 222.388 649.43 231.772C653.521 236.305 661.517 235.918 666.999 234.786C674.827 233.17 673.872 227.195 674.374 221C675.296 209.628 672.039 199.081 658 201.468M757 214C748.668 226.808 755.573 236.016 770 235.025C772.658 234.842 777.169 235.681 779.397 233.961C782.081 231.889 781 225.947 781 223C781 213.815 782.46 203.636 771 201.469C764.484 200.237 746.481 206.407 757 214M802 209C802.517 211.524 805.605 218.043 808.644 213.467C815.909 202.527 794.235 199.611 788.318 203.113C783.469 205.983 785.801 222.979 786.019 227.999C786.118 230.27 786.57 234.599 789.911 234.079C793.651 233.496 792.994 227.639 793 225C793.016 217.35 792.517 209.311 802 209M823 201.479C805.03 204.28 807.481 238.196 828 235.394C847.098 232.787 844.191 198.176 823 201.479M855 201.532C834.777 205.36 841.808 243.912 865.985 234.258C869.797 232.736 874.386 226.377 870.4 222.647C865.672 218.222 858.638 235.385 852.179 224.772C851.133 223.052 851.064 220.951 851.016 219C850.977 217.393 850.899 215.611 851.318 214.044C854.78 201.095 866.074 217.584 870.357 213.353C878.023 205.781 859.705 200.642 855 201.532M360.274 203.176C356.506 205.066 358 213.605 358 217C358 230.98 361.621 235.598 376 234.665C378.309 234.515 381.518 235.234 383.566 233.934C388.447 230.836 386.485 213.161 385.891 208.015C385.607 205.55 384.302 202.069 381.104 202.832C372.653 204.847 384.33 230.088 370.019 227.623C362.216 226.28 365.508 213.418 364.891 208.005C364.643 205.826 363.364 201.626 360.274 203.176z"/>
<path style="fill:#5f5f5f; stroke:none;" d="M352 219L351 219C350.97 229.604 338.879 239.583 329.434 229.686C326.297 226.4 326.979 221.165 327.001 217C327.093 199.287 350.95 200.535 351 218C357.358 202.843 331.642 196.686 326.742 209.019C324.608 214.389 324.587 227.514 329.228 231.486C340.274 240.938 351.992 230.396 352 219M361 203C357.454 209.645 356.19 228.605 364.044 232.682C369.724 235.631 377.834 232.867 384 233L384 204C374.456 205.593 381.74 219.648 377.258 225.856C374 230.368 366.803 230.54 364.603 224.956C361.792 217.821 367.027 208.902 361 203M391 224C391.339 234.428 407.687 238.48 414.485 230.721C427.676 215.668 397.448 218.104 397.346 211.95C397.19 202.561 412.954 213.265 414.744 209.628C416.22 206.627 412.225 204.388 409.985 203.724C405.156 202.293 396.18 201.866 392.742 206.279C381.625 220.547 405.544 218.249 409.338 222.603C414.071 228.034 402.22 229.526 399.09 227.992C396.042 226.498 394.474 224.557 391 224M468.039 203.475C456.893 205.233 458 209.33 458 220C458 222.618 456.576 232.364 460.92 232.364C466.401 232.364 462.883 213.89 465.742 210.282C471.469 203.058 474.615 215.303 478.437 212.824C485.581 208.191 471.715 202.896 468.039 203.475M484 211C488.599 212.061 489.912 209.149 494.015 207.753C496.929 206.762 506.787 209.949 503.168 214.228C498.195 220.107 487.355 210.335 484 222L485 222C489.526 213.026 498.32 220.979 504.243 215.972C507.571 213.159 503.935 207.976 500.945 206.742C494.89 204.244 490.489 208.812 485 210C491.124 202.546 501.975 202.085 508 210C509.466 199.174 486.858 201.484 484 211M571 210C566.309 204.684 558.701 204.661 555 211L553 211L552 210C555.902 203.024 569.464 201.06 573.821 209.058C576.885 214.681 575.427 226.006 574 232C569.57 231.049 566.346 232.722 562 232.806C554.654 232.946 545.376 223.669 554.344 218.028C558.83 215.206 565.055 218.637 569.682 216.398C571.88 215.335 571.836 213.103 572 211C566.869 218.57 557.146 211.344 551.742 218.279C541.288 231.695 565.904 238.764 574.397 231.973C577.902 229.17 576.683 214.017 575.566 210.005C573.335 201.988 552.06 198.941 551.752 208.866C551.708 210.263 552.65 211.245 554.062 211.097C561.601 210.31 562.637 206.098 571 210M609 233C609 219.072 612.731 200.831 593 203.424C590.457 203.759 585.933 203.388 584.179 205.603C581.721 208.709 581.16 230.843 585.375 232.248C588.472 233.281 588.895 228.933 588.981 226.995C589.224 221.472 589.817 198.631 601.682 209.518C608.084 215.392 598.507 231.249 609 233M641 228L640 228C637.762 230.562 635.458 232.084 632 232.667C618.519 234.937 610.985 217.156 619.703 207.43C624.928 201.6 636.41 203.849 640 210C642.067 199.857 619.487 201.256 616.653 210.015C615.002 215.116 614.652 226.437 618.514 230.581C624.158 236.638 637.422 235.157 641 228M673 224C667.809 225.503 658.404 234.756 654.086 225.871C652.012 221.602 656.797 220.159 660.001 220.019C668.431 219.652 679.343 218.928 671.86 207.144C668.273 201.495 655.93 201.553 651.148 205.514C645.311 210.349 645.3 226.649 651.148 231.486C657.993 237.147 674.37 234.807 673 224M774 216C769.37 214.898 762.579 213.795 758.214 216.318C752.527 219.604 753.038 228.73 758.109 232.258C761.773 234.807 776.043 235.61 778.972 231.593C781.265 228.449 780 221.689 780 218C780 214.035 780.826 208.673 777.566 205.703C773.753 202.229 753.618 200.653 755.828 209.682C756.953 214.28 776.692 199.499 774 216M805 214L807 214C810.086 203.435 795.895 199.034 788.564 205.052C785.293 207.738 787 217.195 787 221C787 223.367 785.792 231.407 789.17 232.079C792.116 232.664 791.964 227.662 791.995 225.999C792.158 217.414 795.546 199.342 805 214M813 212L814 212C817.25 200.559 830.618 204.352 838 209C833.196 199.447 814.524 200.64 813 212M869 222L868 222C862.546 229.839 858.238 230.701 850 226C855.729 236.918 863.874 227.61 870 224C867.503 232.33 855.33 236.752 848.653 229.57C845.084 225.731 845.111 216.804 846.434 212.001C849.255 201.759 866.833 201.521 869 212C863.22 207.5 854.776 201.898 850 211L851 211C859.37 202.649 863.003 213.814 871 212C868.003 203.454 854.603 198.464 847.514 206.303C843.668 210.556 844.029 221.77 845.573 226.985C849.047 238.72 875.837 235.419 869 222z"/>
<path style="fill:#161616; stroke:none;" d="M335.001 204.444C325.934 205.992 323.253 222.925 328.742 229.686C331.754 233.396 338.75 233.295 342.999 232.556C352.182 230.96 354.883 214.181 349.258 207.317C346.354 203.774 339.105 203.744 335.001 204.444M394 225L393 225C390.769 235.011 411.19 235.935 414.397 228.772C421.212 213.548 399.213 220.853 396.407 212.946C393.079 203.563 408.657 206.888 412 211L414 211L415 210C411.091 202.227 391.814 200.462 392.103 211.997C392.393 223.606 407.315 215.834 410.914 223.147C412.84 227.063 408.422 230.278 404.999 230.731C400.148 231.374 396.834 228.47 394 225M460 205C458.243 210.946 456.337 228.329 462 232C462 225.95 460.529 217.566 463.318 212.015C466.965 204.757 473.591 205.999 476 213C479.321 210.782 478.863 206.551 474.867 204.908C470.477 203.104 464.747 205.674 460 205M485 210C491.099 210.112 500.451 200.94 504.573 211.039C508.94 221.738 475.478 211.366 485.319 228.856C488.196 233.97 504.281 234.789 507.972 230.361C510.774 227 509.819 212.714 507.821 209.059C503.426 201.019 488.94 202.956 485 210z"/>
<path style="fill:#5f5f5f; stroke:none;" d="M522 233L522 222L522 215C521.998 188.94 508.673 230.776 522 233z"/>
<path style="fill:#161616; stroke:none;" d="M552 210L553 211L555 211C558.809 206.558 573.443 203.616 571.168 213.853C569.789 220.057 557.552 215.238 553.573 218.028C549.666 220.767 550.122 229.085 554.228 231.347C560.536 234.822 567.432 231.117 574 232C575.67 226.349 577.18 212.214 573.258 207.303C568.401 201.223 554.588 202.941 552 210M585 205L585 232C591.716 227.646 585.395 216.357 589.742 210.109C593.331 204.95 601.673 204.918 604.258 211.094C606.661 216.837 605 225.843 605 232L608 232C608 225.585 610.861 210.038 604.772 205.988C599.314 202.359 591.069 204.983 585 205M641 224C636.562 225.534 635.294 230.585 629.999 230.847C611.437 231.768 621.179 196.003 634.731 208.398C636.169 209.714 637.025 211.348 638 213L640 213C640.733 200.247 618.147 201.243 617.093 214C616.703 218.728 615.962 226.64 619.703 230.272C626.276 236.654 639.986 233.022 641 224M672 225C666.929 228.512 657.702 235.491 653.032 226.891C645.516 213.05 682.527 226.37 670.86 208.147C660.049 191.261 637.408 218.263 651.318 230.411C656.837 235.232 672.895 234.306 672 225M756 210L759 211C762.824 206.54 778.453 203.607 775.288 213.856C773.328 220.201 761.667 214.924 757.434 218.603C753.522 222.003 754.692 229.26 759.109 231.566C764.944 234.614 772.737 231.878 779 232C779 225.596 781.281 213.768 777.972 208.147C773.745 200.967 758.929 203.094 756 210M789 205C786.785 212.494 786.785 224.506 789 232L790 232C791.511 226.888 788.795 201.664 800.867 207.272C803.422 208.459 804.682 211.448 807 213C806.622 201.404 797.052 205.854 789 205M823 204.433C806.7 206.686 809.871 234.97 828 232.706C844.467 230.65 841.524 201.872 823 204.433M870 224C864.923 225.808 863.503 231.745 857.001 230.756C846.787 229.203 845.776 210.284 855.018 206.746C860.801 204.533 864.461 209.624 869 212C867.69 200.518 847.37 201.735 846.109 213C845.566 217.847 844.748 226.618 848.653 230.272C855.488 236.67 868.397 232.769 870 224z"/>
<path style="fill:#5f5f5f; stroke:none;" d="M289 205L289 208L290 208L289 205z"/>
<path style="fill:#161616; stroke:none;" d="M360 205C360 212.139 356.756 228.75 365.044 231.967C370.524 234.094 377.186 231.386 383 232L383 205C376.416 209.268 382.396 220.552 377.991 226.786C374.431 231.824 366.307 232.033 363.742 225.906C361.339 220.163 363 211.157 363 205L360 205M518 205L518 232L521 232L521 205L518 205z"/>
<path style="fill:#5f5f5f; stroke:none;" d="M623 207L623 208L636 209C632.003 205.154 628.074 205.617 623 207M335.044 206.653C324.653 210.109 328.445 235.991 342.981 230.397C353.422 226.378 349.77 201.754 335.044 206.653M657.044 206.653C645.044 210.661 657.56 219.253 665.852 216.566C674.362 213.809 664.143 204.282 657.044 206.653M817 214L818 214C820.211 206.314 827.737 205.748 833 211C833.198 202.381 817.945 205.7 817 214M295 207L295 209L297 209L295 207z"/>
<path style="fill:#a1a1a1; stroke:none;" d="M336.019 207.576C326.53 210.299 328.713 233.15 341.956 229.272C351.494 226.479 349.163 203.805 336.019 207.576M653 215L668 215C667.218 204.722 653.775 204.832 653 215M822.058 207.743C811.934 211.9 816.576 234.696 829.891 228.852C838.947 224.877 834.84 202.495 822.058 207.743z"/>
<path style="fill:#5f5f5f; stroke:none;" d="M290.333 208.667L290.667 209.333L290.333 208.667z"/>
<path style="fill:#fefdfc; stroke:none;" d="M557 214L570 214C567.921 207.357 558.255 206.472 557 214z"/>
<path style="fill:#5f5f5f; stroke:none;" d="M622 208L623 209L622 208M736.333 208.667L736.667 209.333L736.333 208.667z"/>
<path style="fill:#fefdfc; stroke:none;" d="M761 214L774 214C771.891 206.99 763.118 207.002 761 214z"/>
<path style="fill:#5f5f5f; stroke:none;" d="M297 209L297 210L319 214C314.843 207.181 303.929 209 297 209z"/>
<path style="fill:#fefdfc; stroke:none;" d="M334.318 210.028C327.126 214.827 333 234.1 343.682 226.972C350.84 222.197 344.899 202.968 334.318 210.028M490 214L503 215C503.122 207.066 492.401 207.47 490 214z"/>
<path style="fill:#5f5f5f; stroke:none;" d="M621 209L621 227L622 227L621 209M636 209L636 212L637 212L636 209z"/>
<path style="fill:#fefdfc; stroke:none;" d="M654 214L667 213C664.061 207.67 655.179 207.21 654 214M821.303 210.028C813.11 215.318 820.272 234.393 830.566 226.856C837.732 221.61 831.759 203.277 821.303 210.028z"/>
<path style="fill:#5f5f5f; stroke:none;" d="M291 210L292 211L291 210M735.333 210.667L735.667 211.333L735.333 210.667M838 210L838 227L839 227L838 210M292 211L292 212L296 213L296 212L292 211M640.333 211.667L640.667 212.333L640.333 211.667M637 212L638 213L637 212M734 212L734 215L735 215L734 212M834 212L834 225L835 225L834 212M849 212L849 225L850 225L849 212M296 213L296 214L315 217C311.486 210.986 302.111 213 296 213M638.667 213.333L639.333 213.667L638.667 213.333M319 214L320 226L321 226L319 214z"/>
<path style="fill:#a1a1a1; stroke:none;" d="M435 221C434.46 204.561 405.461 220.99 427.998 221L435 221z"/>
<path style="fill:#5f5f5f; stroke:none;" d="M419 219L434 220C432.798 212.799 422.072 213.428 419 219M733.333 215.667L733.667 216.333L733.333 215.667z"/>
<path style="fill:#161616; stroke:none;" d="M421 219L433 219L433 217L421 219z"/>
<path style="fill:#5f5f5f; stroke:none;" d="M315 217L315 226L316 226L315 217M509 217L509 222L510 222L509 217M732 217L732 220L733 220L732 217M492.059 218.742C482.023 222.937 492.544 233.844 500.891 230.258C510.95 225.936 500.394 215.258 492.059 218.742M571 226L570 226C566.795 229.097 555.193 232.335 556.036 224.04C556.745 217.073 567.1 219.987 570 223C571.507 216.202 556.903 216.581 554.761 222.109C550.906 232.056 567.145 233.346 571 226M762.059 219.028C752.406 224.323 764.216 234.053 771.941 229.821C781.966 224.329 769.782 214.791 762.059 219.028z"/>
<path style="fill:#a1a1a1; stroke:none;" d="M494.019 219.638C485.265 221.008 490.475 231.08 497.995 229.651C507.904 227.769 502.217 218.355 494.019 219.638M560.019 219.703C551.029 221.95 557.604 231.209 564.985 229.463C575.166 227.054 568.184 217.662 560.019 219.703M764.044 219.703C754.691 222.089 762.292 231.538 769.981 229.275C779.756 226.398 771.397 217.827 764.044 219.703z"/>
<path style="fill:#5f5f5f; stroke:none;" d="M290 220L290 221L293 222L290 220M731 220L730 224L731 224L731 220M289 221L290 222L289 221z"/>
<path style="fill:#fefdfc; stroke:none;" d="M491.608 222.027C486.148 226.422 497.205 229.388 500.663 226.973C506.315 223.026 495.179 219.153 491.608 222.027M558.608 222.027C553.28 226.316 563.826 229.894 567.663 226.907C573.214 222.586 562.028 219.274 558.608 222.027z"/>
<path style="fill:#a1a1a1; stroke:none;" d="M653 221L653 227L654 227L653 221z"/>
<path style="fill:#fefdfc; stroke:none;" d="M654 221C654.352 231.571 665.7 228.651 670 222L654 221M762.608 222.027C757.306 226.296 767.87 230.012 771.663 227.059C777.279 222.687 766.106 219.211 762.608 222.027z"/>
<path style="fill:#5f5f5f; stroke:none;" d="M293 222L293 226L294 226L293 222z"/>
<path style="fill:#a1a1a1; stroke:none;" d="M509.333 222.667L509.667 223.333L509.333 222.667z"/>
<path style="fill:#5f5f5f; stroke:none;" d="M637 226L638 226L641 224C638.588 222.645 637.568 223.351 637 226M817 223L817 227L818 227L817 223M509 224L510 225L509 224M641 224L641 227L642 227L641 224M729 224L729 227L730 227L729 224z"/>
<path style="fill:#a1a1a1; stroke:none;" d="M509.333 225.667L509.667 226.333L509.333 225.667z"/>
<path style="fill:#5f5f5f; stroke:none;" d="M813 225L813 229L814 229L813 225M289 226L289 229L290 229L289 226M294 226L297 229L294 226M314 226L297 229L297 230C301.062 230 314.15 231.982 314 226M319 226L319 229L320 229L319 226M636 226C631.581 230.781 627.359 229.69 622 227C624.623 231.49 637.588 233.303 636 226M833.333 226.667L833.667 227.333L833.333 226.667M484 227L484 230L485 230L484 227M509 227L509 231L510 231L509 227M719.333 227.667L719.667 228.333L719.333 227.667M728.333 227.667L728.667 228.333L728.333 227.667M818 227L819 228L818 227M819 228C822.229 232.571 828.571 231.132 833 229L833 228L819 228M837 228L834 232L837 228M290 229L291 230L290 229M318 229C310.248 234.138 302.685 232.373 294 232L294 233C298.698 233.872 318.193 236.685 318 229M720.333 229.667L720.667 230.333L720.333 229.667M727 229L721 231C723.259 233.977 727.937 233.221 727 229M814 229L815 230L814 229M291 230L292 231L291 230M485 230L486 231L485 230M815 230L815 232L817 232L815 230M292.667 231.333L293.333 231.667L292.667 231.333M486 231L487 232L486 231M487 232L487 233C492.287 233.982 505.726 235.795 509 231L487 232M817 232L817 233L834 233L817 232z"/>
</svg>
